<?xml version="1.0" encoding="UTF-8"?>
<svg width="100pt" height="100pt" version="1.1" viewBox="0 0 100 100" xmlns="http://www.w3.org/2000/svg">
 <path d="m43.684 1.0625h12.633c1.2969 0 2.4805 1.1797 2.4805 2.4805v37.664h37.543c1.418 0 2.5977 1.0625 2.5977 2.4805v12.633c0 1.2969-1.1797 2.4805-2.5977 2.4805h-37.543v37.543c0 1.418-1.1797 2.5977-2.4805 2.5977h-12.633c-1.418 0-2.4805-1.1797-2.4805-2.5977v-37.543h-37.664c-1.2969 0-2.4805-1.1797-2.4805-2.4805v-12.633c0-1.418 1.1797-2.4805 2.4805-2.4805h37.664v-37.664c0-1.2969 1.0625-2.4805 2.4805-2.4805z" fill-rule="evenodd"/>
</svg>
